<svg width="538" height="385" viewBox="0 0 538 385" fill="none" xmlns="http://www.w3.org/2000/svg">
<rect width="538" height="385" fill="#1E1E1E"/>
<rect width="538" height="385" fill="white"/>
<path d="M292.322 239.58C294.602 239.58 296.342 240.18 297.542 241.38C298.782 242.54 299.402 244.2 299.402 246.36C299.402 247.68 299.302 250.34 299.102 254.34L298.802 262.62C298.802 263.78 298.962 264.64 299.282 265.2C299.642 265.72 300.202 265.98 300.962 265.98C301.362 265.98 301.782 265.9 302.222 265.74C302.702 265.58 303.122 265.36 303.482 265.08L303.842 265.26L303.602 266.34C302.802 266.9 301.902 267.18 300.902 267.18C299.782 267.18 298.962 266.84 298.442 266.16C297.922 265.44 297.642 264.26 297.602 262.62H297.422C296.222 264.02 294.942 265.14 293.582 265.98C292.222 266.82 290.882 267.26 289.562 267.3C287.402 267.3 285.722 266.72 284.522 265.56C283.362 264.36 282.782 262.7 282.782 260.58C282.782 259.14 283.202 257.92 284.042 256.92C284.922 255.92 286.142 255.24 287.702 254.88L298.022 252.48L298.202 246.6C298.202 244.72 297.682 243.28 296.642 242.28C295.642 241.28 294.182 240.78 292.262 240.78C291.062 240.78 289.742 241.12 288.302 241.8C286.902 242.48 285.482 243.44 284.042 244.68L283.682 244.56L283.382 243.66C284.862 242.34 286.362 241.34 287.882 240.66C289.442 239.94 290.922 239.58 292.322 239.58ZM288.002 256.08C286.722 256.4 285.722 256.94 285.002 257.7C284.322 258.46 283.982 259.42 283.982 260.58C283.982 262.3 284.462 263.66 285.422 264.66C286.422 265.62 287.782 266.1 289.502 266.1C290.822 266.1 292.182 265.62 293.582 264.66C295.022 263.7 296.382 262.36 297.662 260.64L297.962 253.74L288.002 256.08ZM317.545 239.7C319.385 239.7 321.265 240.1 323.185 240.9L322.885 242.04L322.525 242.1C320.885 241.3 319.205 240.9 317.485 240.9C315.485 240.9 313.865 241.44 312.625 242.52C311.385 243.6 310.765 244.92 310.765 246.48C310.765 247.96 311.285 249.12 312.325 249.96C313.365 250.8 314.965 251.72 317.125 252.72C318.645 253.44 319.865 254.08 320.785 254.64C321.705 255.2 322.485 255.92 323.125 256.8C323.765 257.68 324.085 258.74 324.085 259.98C324.085 261.3 323.725 262.52 323.005 263.64C322.285 264.76 321.265 265.66 319.945 266.34C318.665 266.98 317.205 267.3 315.565 267.3C314.325 267.3 313.085 267.12 311.845 266.76C310.645 266.36 309.585 265.84 308.665 265.2L308.845 264.18L309.145 264C311.025 265.4 313.145 266.1 315.505 266.1C317.745 266.1 319.525 265.5 320.845 264.3C322.205 263.1 322.885 261.68 322.885 260.04C322.885 258.6 322.365 257.46 321.325 256.62C320.325 255.78 318.765 254.86 316.645 253.86C315.085 253.14 313.825 252.5 312.865 251.94C311.945 251.34 311.165 250.6 310.525 249.72C309.885 248.8 309.565 247.7 309.565 246.42C309.565 244.46 310.285 242.86 311.725 241.62C313.205 240.34 315.145 239.7 317.545 239.7ZM330.65 242.46L339.05 264.84H339.35L348.11 242.46L349.01 239.88H350.45L339.83 267C338.79 269.68 337.73 271.76 336.65 273.24C335.57 274.72 334.31 275.82 332.87 276.54C331.43 277.3 329.53 277.92 327.17 278.4H326.87C326.71 278.24 326.55 278 326.39 277.68V277.32C328.79 276.84 330.69 276.24 332.09 275.52C333.49 274.84 334.67 273.84 335.63 272.52C336.63 271.24 337.59 269.4 338.51 267L328.55 240L329.81 239.76L330.65 242.46ZM368.526 239.58C371.046 239.58 372.986 240.3 374.346 241.74C375.706 243.14 376.386 245.14 376.386 247.74V267H375.066L375.186 247.8C375.186 245.6 374.606 243.88 373.446 242.64C372.286 241.4 370.646 240.78 368.526 240.78C366.966 240.78 365.346 241.3 363.666 242.34C362.026 243.34 360.446 244.74 358.926 246.54V267H357.726V240.06L358.926 239.82V244.56H359.166C360.646 242.96 362.186 241.74 363.786 240.9C365.426 240.02 367.006 239.58 368.526 239.58ZM395.765 239.58C397.125 239.58 398.505 239.82 399.905 240.3C401.305 240.74 402.505 241.34 403.505 242.1L403.085 243.12H402.725C401.845 242.44 400.765 241.88 399.485 241.44C398.245 241 397.005 240.78 395.765 240.78C392.925 240.78 390.645 241.96 388.925 244.32C387.205 246.64 386.345 249.76 386.345 253.68C386.345 257.44 387.185 260.46 388.865 262.74C390.585 264.98 392.885 266.1 395.765 266.1C397.085 266.1 398.425 265.88 399.785 265.44C401.145 264.96 402.345 264.32 403.385 263.52L403.745 263.64L403.625 264.72C402.585 265.48 401.365 266.1 399.965 266.58C398.565 267.06 397.145 267.3 395.705 267.3C392.505 267.3 389.945 266.06 388.025 263.58C386.105 261.1 385.145 257.8 385.145 253.68C385.145 250.84 385.585 248.36 386.465 246.24C387.345 244.12 388.585 242.48 390.185 241.32C391.785 240.16 393.645 239.58 395.765 239.58ZM430.231 239.58C432.991 239.58 435.131 240.46 436.651 242.22C438.211 243.94 438.991 246.36 438.991 249.48C438.991 250.28 438.971 250.88 438.931 251.28L438.571 251.7L420.331 251.94C420.291 252.34 420.271 252.94 420.271 253.74C420.271 257.54 421.131 260.56 422.851 262.8C424.611 265 426.991 266.1 429.991 266.1C431.471 266.1 432.911 265.88 434.311 265.44C435.711 264.96 436.931 264.32 437.971 263.52L438.331 263.64L438.151 264.84C435.671 266.48 432.911 267.3 429.871 267.3C426.551 267.3 423.911 266.08 421.951 263.64C420.031 261.2 419.071 257.9 419.071 253.74C419.071 249.42 420.071 245.98 422.071 243.42C424.111 240.86 426.831 239.58 430.231 239.58ZM437.851 249.24C437.851 246.6 437.151 244.54 435.751 243.06C434.391 241.54 432.531 240.78 430.171 240.78C427.571 240.78 425.411 241.68 423.691 243.48C421.971 245.24 420.891 247.66 420.451 250.74L437.791 250.5L437.851 249.24ZM458.088 239.88C458.608 239.88 459.148 239.92 459.708 240V241.14L459.408 241.26C458.808 241.14 458.268 241.08 457.788 241.08C456.388 241.08 455.028 241.72 453.708 243C452.388 244.28 451.048 246.26 449.688 248.94V267H448.488V240.06L449.688 239.82V246.48H449.928C451.168 244.24 452.448 242.58 453.768 241.5C455.088 240.42 456.528 239.88 458.088 239.88ZM475.901 239.88C476.421 239.88 476.961 239.92 477.521 240V241.14L477.221 241.26C476.621 241.14 476.081 241.08 475.601 241.08C474.201 241.08 472.841 241.72 471.521 243C470.201 244.28 468.861 246.26 467.501 248.94V267H466.301V240.06L467.501 239.82V246.48H467.741C468.981 244.24 470.261 242.58 471.581 241.5C472.901 240.42 474.341 239.88 475.901 239.88ZM492.287 239.58C495.687 239.58 498.367 240.8 500.327 243.24C502.287 245.64 503.267 248.96 503.267 253.2C503.267 257.56 502.247 261 500.207 263.52C498.207 266.04 495.427 267.3 491.867 267.3C488.467 267.3 485.787 266.1 483.827 263.7C481.867 261.26 480.887 257.92 480.887 253.68C480.887 249.32 481.887 245.88 483.887 243.36C485.927 240.84 488.727 239.58 492.287 239.58ZM492.287 240.78C489.127 240.78 486.627 241.92 484.787 244.2C482.987 246.48 482.087 249.64 482.087 253.68C482.087 257.56 482.947 260.6 484.667 262.8C486.427 265 488.827 266.1 491.867 266.1C495.027 266.1 497.507 264.96 499.307 262.68C501.147 260.4 502.067 257.24 502.067 253.2C502.067 249.32 501.187 246.28 499.427 244.08C497.707 241.88 495.327 240.78 492.287 240.78ZM521.487 239.88C522.007 239.88 522.547 239.92 523.107 240V241.14L522.807 241.26C522.207 241.14 521.667 241.08 521.187 241.08C519.787 241.08 518.427 241.72 517.107 243C515.787 244.28 514.447 246.26 513.087 248.94V267H511.887V240.06L513.087 239.82V246.48H513.327C514.567 244.24 515.847 242.58 517.167 241.5C518.487 240.42 519.927 239.88 521.487 239.88Z" fill="black"/>
<path d="M35.632 126H69.032V127.9H37.532V154.7H60.332L59.632 156.6H37.532V194.1H68.832V196H35.632V126ZM96.7164 172.6L82.0164 196H79.8164L95.6164 170.9L80.4164 145.9H82.7164L96.7164 169.4L111.016 145.9H113.216L97.9164 171L112.916 196H110.816L96.7164 172.6ZM126.452 145.9H128.352V151.9C130.086 149.5 132.386 147.767 135.252 146.7C138.186 145.633 141.052 145.1 143.852 145.1C150.652 145.1 155.719 146.9 159.052 150.5C162.452 154.1 164.152 158.8 164.152 164.6V178.4C164.152 184.467 162.386 189.133 158.852 192.4C155.386 195.6 150.852 197.2 145.252 197.2C136.986 197.2 131.352 194.233 128.352 188.3V217L126.452 216.3V145.9ZM162.252 164.2C162.252 157.867 160.419 153.433 156.752 150.9C153.086 148.3 148.819 147 143.952 147C140.952 147 137.886 147.7 134.752 149.1C131.619 150.433 129.486 152.833 128.352 156.3V180.4C128.352 185 129.886 188.633 132.952 191.3C136.086 193.967 140.286 195.3 145.552 195.3C148.152 195.3 150.719 194.8 153.252 193.8C155.786 192.733 157.919 191.033 159.652 188.7C161.386 186.3 162.252 183.2 162.252 179.4V164.2ZM174.166 145.9H176.066V151.2C179.933 147.133 185.133 145.1 191.666 145.1C194.133 145.1 196.633 145.367 199.166 145.9L198.566 148C196.3 147.333 193.966 147 191.566 147C188.766 147 186.166 147.433 183.766 148.3C181.433 149.167 179.566 150.3 178.166 151.7C176.766 153.1 176.066 154.567 176.066 156.1V196H174.166V145.9ZM233.484 192.5C231.084 194.033 228.351 195.2 225.284 196C222.218 196.8 219.151 197.2 216.084 197.2C211.151 197.2 207.218 196 204.284 193.6C201.418 191.133 199.984 187.467 199.984 182.6V162.1C199.984 156.7 201.651 152.5 204.984 149.5C208.384 146.5 212.851 145 218.384 145C223.918 145 228.218 146.5 231.284 149.5C234.418 152.433 235.984 156.533 235.984 161.8V171.3L201.884 173V182.8C201.884 186.933 203.218 190.1 205.884 192.3C208.551 194.433 212.018 195.5 216.284 195.5C218.818 195.5 221.484 195.1 224.284 194.3C227.084 193.5 229.851 192.333 232.584 190.8L233.484 192.5ZM234.084 161.7C234.084 156.433 232.518 152.667 229.384 150.4C226.318 148.067 222.618 146.9 218.284 146.9C213.818 146.9 209.951 148.133 206.684 150.6C203.484 153 201.884 156.8 201.884 162V171.2L234.084 169.4V161.7ZM245.344 183.3C245.61 186.7 247.144 189.6 249.944 192C252.744 194.4 256.744 195.6 261.944 195.6C266.61 195.6 270.377 194.467 273.244 192.2C276.11 189.933 277.544 187.067 277.544 183.6C277.544 181.133 276.777 179.1 275.244 177.5C273.777 175.833 271.977 174.567 269.844 173.7C267.71 172.767 264.81 171.733 261.144 170.6C257.81 169.6 255.144 168.7 253.144 167.9C251.144 167.033 249.377 165.933 247.844 164.6C246.377 163.2 245.51 161.5 245.244 159.5C245.177 159.167 245.144 158.6 245.144 157.8C245.144 155.6 245.71 153.533 246.844 151.6C247.977 149.6 249.777 147.967 252.244 146.7C254.777 145.367 257.944 144.7 261.744 144.7C263.81 144.7 265.644 144.933 267.244 145.4C268.91 145.8 270.21 146.267 271.144 146.8C272.144 147.267 272.744 147.567 272.944 147.7L272.044 149.4C271.777 149.267 271.144 149 270.144 148.6C269.21 148.133 267.944 147.7 266.344 147.3C264.744 146.9 263.01 146.7 261.144 146.7C258.744 146.7 256.41 147.133 254.144 148C251.944 148.867 250.144 150.233 248.744 152.1C247.41 153.9 246.877 156.167 247.144 158.9C247.277 160.633 247.977 162.1 249.244 163.3C250.577 164.433 252.144 165.367 253.944 166.1C255.744 166.767 258.244 167.6 261.444 168.6C265.377 169.8 268.51 170.9 270.844 171.9C273.244 172.9 275.277 174.367 276.944 176.3C278.61 178.167 279.444 180.567 279.444 183.5C279.444 187.433 277.944 190.767 274.944 193.5C272.01 196.167 267.677 197.5 261.944 197.5C258.144 197.5 254.844 196.867 252.044 195.6C249.31 194.267 247.21 192.533 245.744 190.4C244.344 188.267 243.577 185.9 243.444 183.3H245.344ZM288.41 183.3C288.677 186.7 290.21 189.6 293.01 192C295.81 194.4 299.81 195.6 305.01 195.6C309.677 195.6 313.443 194.467 316.31 192.2C319.177 189.933 320.61 187.067 320.61 183.6C320.61 181.133 319.843 179.1 318.31 177.5C316.843 175.833 315.043 174.567 312.91 173.7C310.777 172.767 307.877 171.733 304.21 170.6C300.877 169.6 298.21 168.7 296.21 167.9C294.21 167.033 292.443 165.933 290.91 164.6C289.443 163.2 288.577 161.5 288.31 159.5C288.243 159.167 288.21 158.6 288.21 157.8C288.21 155.6 288.777 153.533 289.91 151.6C291.043 149.6 292.843 147.967 295.31 146.7C297.843 145.367 301.01 144.7 304.81 144.7C306.877 144.7 308.71 144.933 310.31 145.4C311.977 145.8 313.277 146.267 314.21 146.8C315.21 147.267 315.81 147.567 316.01 147.7L315.11 149.4C314.843 149.267 314.21 149 313.21 148.6C312.277 148.133 311.01 147.7 309.41 147.3C307.81 146.9 306.077 146.7 304.21 146.7C301.81 146.7 299.477 147.133 297.21 148C295.01 148.867 293.21 150.233 291.81 152.1C290.477 153.9 289.943 156.167 290.21 158.9C290.343 160.633 291.043 162.1 292.31 163.3C293.643 164.433 295.21 165.367 297.01 166.1C298.81 166.767 301.31 167.6 304.51 168.6C308.443 169.8 311.577 170.9 313.91 171.9C316.31 172.9 318.343 174.367 320.01 176.3C321.677 178.167 322.51 180.567 322.51 183.5C322.51 187.433 321.01 190.767 318.01 193.5C315.077 196.167 310.743 197.5 305.01 197.5C301.21 197.5 297.91 196.867 295.11 195.6C292.377 194.267 290.277 192.533 288.81 190.4C287.41 188.267 286.643 185.9 286.51 183.3H288.41Z" fill="black"/>
</svg>
